<?xml version="1.0" encoding="UTF-8"?>
<svg width="20px" height="22px" viewBox="0 0 20 22" version="1.1" xmlns="http://www.w3.org/2000/svg" xmlns:xlink="http://www.w3.org/1999/xlink">
    <!-- Generator: Sketch 49.2 (51160) - http://www.bohemiancoding.com/sketch -->
    <title>github</title>
    <desc>Created with Sketch.</desc>
    <defs></defs>
    <g id="Page-1" stroke="none" stroke-width="1" fill="none" fill-rule="evenodd" stroke-linecap="round" stroke-linejoin="round">
        <g id="github" transform="translate(1.000000, 1.000000)" stroke="#FFFFFF" stroke-width="2">
            <path d="M6.36363636,16.3879937 C1.81818182,17.7516301 1.81818182,14.1152665 0,13.660721 M12.7272727,19.1152665 L12.7272727,15.5970846 C12.7962574,14.7201731 12.4849919,13.8559148 11.8727273,13.2243574 C14.7272727,12.9061756 17.7272727,11.8243574 17.7272727,6.86072101 C17.7270394,5.59147283 17.238811,4.37090175 16.3636364,3.4516301 C16.7780508,2.3411815 16.7487491,1.11376589 16.2818182,0.0243573702 C16.2818182,0.0243573702 15.2090909,-0.293824448 12.7272727,1.36981192 C10.6436446,0.805104409 8.44726448,0.805104409 6.36363636,1.36981192 C3.88181818,-0.293824448 2.80909091,0.0243573702 2.80909091,0.0243573702 C2.34216,1.11376589 2.3128583,2.3411815 2.72727273,3.4516301 C1.8455701,4.37772072 1.35683877,5.60932366 1.36363636,6.88799373 C1.36363636,11.8152665 4.36363636,12.8970846 7.21818182,13.2516301 C6.61329053,13.8766879 6.30261034,14.7294058 6.36363636,15.5970846 L6.36363636,19.1152665" id="Shape"></path>
        </g>
    </g>
</svg>