<?xml version="1.0" encoding="UTF-8"?>
<svg width="27px" height="26px" viewBox="0 0 27 26" version="1.1" xmlns="http://www.w3.org/2000/svg" xmlns:xlink="http://www.w3.org/1999/xlink">
    <!-- Generator: Sketch 49 (51002) - http://www.bohemiancoding.com/sketch -->
    <title>Fill-123</title>
    <desc>Created with Sketch.</desc>
    <defs></defs>
    <g id="Page-1" stroke="none" stroke-width="1" fill="none" fill-rule="evenodd">
        <g id="evil-Icons" transform="translate(-102.000000, -671.000000)" fill="#555555" fill-rule="nonzero">
            <g id="Icon-GitHub" transform="translate(102.000000, 671.000000)">
                <path d="M13.3281804,0 C5.9678685,0 0,5.9678685 0,13.3299576 C0,19.2187403 3.81922257,24.2144754 9.1161946,25.9765783 C9.78264805,26.0992057 10.0252371,25.6877818 10.0252371,25.3341172 C10.0252371,25.0177739 10.0145739,24.1798198 10.007465,23.0672868 C6.30020662,23.8732512 5.51734597,21.280303 5.51734597,21.280303 C4.91131763,19.7412398 4.03781931,19.3307045 4.03781931,19.3307045 C2.82753984,18.5043022 4.12934558,18.5202971 4.12934558,18.5202971 C5.4666955,18.6144892 6.17135895,19.8940798 6.17135895,19.8940798 C7.36031191,21.9316502 9.2903611,21.3433939 10.050118,21.0021697 C10.1709683,20.1402233 10.5157468,19.5528556 10.8960696,19.2196289 C7.93612769,18.8837364 4.82512298,17.7401023 4.82512298,12.632403 C4.82512298,11.1768687 5.34406807,9.98702711 6.19712849,9.05576949 C6.05939477,8.71809974 5.60265201,7.36297772 6.32775336,5.52800922 C6.32775336,5.52800922 7.44650656,5.16990157 9.99324734,6.8946831 C11.0560184,6.59877777 12.1960981,6.4512694 13.3299576,6.44593777 C14.4620399,6.4512694 15.6021196,6.59877777 16.6666679,6.8946831 C19.2116315,5.16990157 20.3286075,5.52800922 20.3286075,5.52800922 C21.055486,7.36297772 20.5978546,8.71809974 20.4610095,9.05576949 C21.3158472,9.98702711 21.8312378,11.1768687 21.8312378,12.632403 C21.8312378,17.7525427 18.7149015,18.8792934 15.7451849,19.2098543 C16.2241428,19.6212782 16.650673,20.4343514 16.650673,21.6775092 C16.650673,23.4600501 16.6337895,24.8978123 16.6337895,25.3341172 C16.6337895,25.6904476 16.8746014,26.105426 17.5508295,25.9756897 C22.8424699,24.2091437 26.658138,19.2169631 26.658138,13.3299576 C26.658138,5.9678685 20.6893809,0 13.3281804,0" id="Fill-123"></path>
            </g>
        </g>
    </g>
</svg>