<?xml version="1.0" encoding="UTF-8"?>
<svg width="26px" height="23px" viewBox="0 0 26 23" version="1.1" xmlns="http://www.w3.org/2000/svg" xmlns:xlink="http://www.w3.org/1999/xlink">
    <!-- Generator: Sketch 49.2 (51160) - http://www.bohemiancoding.com/sketch -->
    <title>medium</title>
    <desc>Created with Sketch.</desc>
    <defs></defs>
    <g id="Page-1" stroke="none" stroke-width="1" fill="none" fill-rule="evenodd">
        <g id="medium" fill-rule="nonzero">
            <path d="M18.0539438,0.227306857 C17.6573664,0.0314358571 17.3333333,0.229724857 17.3333333,0.674665333 L17.3333333,18.2860866 L24.5611978,21.8988095 C25.3567711,22.2953869 26,22.017299 26,21.2773439 L26,4.3164061 C26,4.24627976 25.9588915,4.18098943 25.8960192,4.14955357 L18.0539438,0.227306857 Z" id="Shape" fill="#D0D0D0"></path>
            <path d="M8.66666667,13.9503347 L16.9125747,0.553757286 C17.1447176,0.176525143 17.6573664,0.0314358571 18.0539438,0.227306857 L25.9056918,4.15439019 C25.9564735,4.18098943 25.9734001,4.24386176 25.9443823,4.29222486 L17.3333333,18.283668 L8.66666667,13.9503347 Z" id="Shape" fill="#A1A1A1"></path>
            <path d="M1.19940476,0.469122333 C0.539248667,0.137834667 0.316778429,0.382068762 0.70368319,1.010789 L8.66666667,13.9503347 L17.3333333,18.283668 L8.6860119,4.23177114 C8.67392129,4.2124259 8.65457605,4.19549867 8.63523081,4.18582605 L1.19940476,0.469122333 Z" id="Shape" fill="#808080"></path>
            <path d="M8.66666667,21.2773439 C8.66666667,22.014881 8.127418,22.3485866 7.4672619,22.017299 L0.720610429,18.6439735 C0.324033048,18.4481025 0,17.9233631 0,17.4808406 L0,0.940662048 C0,0.350632286 0.432849857,0.0846355714 0.960007286,0.348214286 L8.62072157,4.17857143 C8.64973943,4.19308067 8.66666667,4.22209852 8.66666667,4.25353438 L8.66666667,21.2773439 Z" id="Shape" fill="#575757"></path>
        </g>
    </g>
</svg>